<?xml version="1.0" encoding="UTF-8" standalone="no"?>
<svg
   xmlns:dc="http://purl.org/dc/elements/1.1/"
   xmlns:cc="http://creativecommons.org/ns#"
   xmlns:rdf="http://www.w3.org/1999/02/22-rdf-syntax-ns#"
   xmlns:svg="http://www.w3.org/2000/svg"
   xmlns="http://www.w3.org/2000/svg"
   xmlns:sodipodi="http://sodipodi.sourceforge.net/DTD/sodipodi-0.dtd"
   xmlns:inkscape="http://www.inkscape.org/namespaces/inkscape"
   height="512"
   viewBox="0 0 64 64"
   width="512"
   version="1.1"
   id="svg165"
   sodipodi:docname="ZipImageViewer.svg"
   inkscape:version="0.92.4 (5da689c313, 2019-01-14)"
   inkscape:export-filename="D:\Temp\ZipImageViewer\ZipImageViewer.png"
   inkscape:export-xdpi="96"
   inkscape:export-ydpi="96">
  <metadata
     id="metadata171">
    <rdf:RDF>
      <cc:Work
         rdf:about="">
        <dc:format>image/svg+xml</dc:format>
        <dc:type
           rdf:resource="http://purl.org/dc/dcmitype/StillImage" />
        <dc:title></dc:title>
      </cc:Work>
    </rdf:RDF>
  </metadata>
  <defs
     id="defs169" />
  <sodipodi:namedview
     pagecolor="#ffffff"
     bordercolor="#666666"
     borderopacity="1"
     objecttolerance="10"
     gridtolerance="10"
     guidetolerance="10"
     inkscape:pageopacity="0"
     inkscape:pageshadow="2"
     inkscape:window-width="2560"
     inkscape:window-height="1361"
     id="namedview167"
     showgrid="false"
     inkscape:zoom="1.6130873"
     inkscape:cx="400.39844"
     inkscape:cy="249.85489"
     inkscape:window-x="-9"
     inkscape:window-y="-9"
     inkscape:window-maximized="1"
     inkscape:current-layer="svg165" />
  <path
     style="fill:#fcbc04"
     inkscape:connector-curvature="0"
     d="m 8.1588289,61.370711 v -47 a 4,4 0 0 1 4.0000001,-4 h 10 a 6,6 0 0 1 3.6,1.2 l 4.8,3.6 a 6,6 0 0 0 3.6,1.2 h 23 a 4,4 0 0 1 4,4 v 37 a 4,4 0 0 1 -4,4 z"
     id="path4952" />
  <path
     style="fill:#e59730"
     inkscape:connector-curvature="0"
     d="m 14.158829,12.370711 v -2 h -2 a 4,4 0 0 0 -4.0000001,4 v 47 H 57.158829 a 4,4 0 0 0 4,-4 v -37 h -39 a 8,8 0 0 1 -8,-8 z"
     id="path4954" />
  <g
     id="g237"
     transform="matrix(0.07196079,0.01065327,-0.01065327,0.07196079,18.147173,2.9237773)">
	
	<g
   id="g330"
   transform="matrix(1.2020349,0.30311182,-0.30311182,1.2020349,8.7889507,-89.399666)">
  <g
     id="g223">
		<g
   id="g181">
			<g
   id="g179">
				<g
   id="g177">
					<path
   inkscape:connector-curvature="0"
   style="fill:#d6d6d6"
   d="M 68.001,440.534 109.302,30.93 c 0.873,-8.659 8.601,-14.971 17.26,-14.098 l 362.373,36.539 c 8.659,0.873 14.971,8.601 14.098,17.26 l -41.302,409.604 c -0.873,8.659 -8.601,14.971 -17.26,14.098 L 82.099,457.793 c -8.66,-0.873 -14.971,-8.6 -14.098,-17.259 z"
   id="path173" />

					<path
   inkscape:connector-curvature="0"
   style="fill:#53b4e4"
   d="M 416.267,404.765 127.616,375.659 c -8.05,-0.812 -13.917,-7.995 -13.106,-16.045 L 143.616,70.963 c 0.812,-8.05 7.995,-13.917 16.045,-13.106 l 288.651,29.106 c 8.05,0.812 13.917,7.995 13.106,16.045 l -29.106,288.651 c -0.812,8.05 -7.995,13.917 -16.045,13.106 z"
   id="path175" />

				</g>

			</g>

		</g>

		<g
   id="g221">
			<g
   id="g195">
				<g
   id="g193">
					<path
   inkscape:connector-curvature="0"
   style="fill:#ededed"
   d="M 76.121,491.307 9.104,85.118 C 7.687,76.531 13.5,68.421 22.087,67.004 L 381.439,7.715 c 8.587,-1.417 16.697,4.396 18.113,12.983 l 67.017,406.189 c 1.417,8.587 -4.396,16.697 -12.983,18.113 L 94.235,504.29 c -8.587,1.416 -16.697,-4.396 -18.114,-12.983 z"
   id="path183" />

					<path
   inkscape:connector-curvature="0"
   style="fill:#75cff2"
   d="m 402.987,365.896 -286.245,47.227 c -7.983,1.317 -15.521,-4.086 -16.838,-12.069 L 52.676,114.81 C 51.359,106.827 56.762,99.289 64.745,97.972 L 350.99,50.744 c 7.983,-1.317 15.521,4.086 16.838,12.069 l 47.227,286.245 c 1.318,7.982 -4.086,15.521 -12.068,16.838 z"
   id="path185" />

					<path
   inkscape:connector-curvature="0"
   style="fill:#ff9c43"
   d="m 310.773,172.455 c -6.476,-39.251 -43.545,-65.82 -82.795,-59.344 l -26.706,4.406 c -39.251,6.476 -65.82,43.545 -59.344,82.795 l 24.885,151.445 168.838,-27.903 z"
   id="path187" />

					<path
   inkscape:connector-curvature="0"
   style="fill:#ef8229"
   d="m 177.844,126.373 c 39.251,-6.476 76.319,20.093 82.795,59.344 l 24.082,146.554 50.93,-8.417 -24.878,-151.4 c -6.476,-39.251 -43.545,-65.82 -82.795,-59.344 l -26.706,4.406 c -9.112,1.503 -17.528,4.673 -25.019,9.118 z"
   id="path189" />

					<path
   inkscape:connector-curvature="0"
   style="fill:#53b4e4"
   d="M 415.056,349.057 367.828,62.813 C 366.511,54.83 358.972,49.427 350.99,50.744 l -36.37,6.001 51.997,315.152 36.37,-6.001 c 7.982,-1.317 13.386,-8.856 12.069,-16.839 z"
   id="path191" />

				</g>

			</g>

			<path
   inkscape:connector-curvature="0"
   style="fill:#fae0c1"
   d="m 384.025,357.191 c -2.606,-15.793 -13.863,-28.783 -29.124,-33.608 v 0 c -13.313,-4.209 -65.245,-10.698 -65.245,-10.698 -8.477,-0.159 -15.623,-6.364 -17.003,-14.73 l -1.535,-9.301 -54.244,8.95 1.535,9.301 c 1.38,8.365 -3.394,16.538 -11.37,19.411 -1.25,0.45 -48.145,23.597 -58.351,31.089 -12.903,9.472 -19.391,25.39 -16.785,41.183 l 1.901,11.52 252.122,-41.597 z"
   id="path197" />

			<path
   inkscape:connector-curvature="0"
   style="fill:#efd0af"
   d="m 226.402,315.822 c 1.38,8.365 8.526,14.571 17.003,14.729 0,0 51.932,6.488 65.245,10.698 v 0 c 15.262,4.825 26.519,17.815 29.124,33.608 l 0.289,1.75 47.862,-7.897 -1.901,-11.52 C 381.418,341.397 370.161,328.407 354.9,323.582 v 0 c -13.313,-4.209 -65.245,-10.698 -65.245,-10.698 -8.477,-0.159 -15.623,-6.364 -17.003,-14.73 l -1.535,-9.301 -47.727,7.875 z"
   id="path199" />

			<g
   id="g215">
				<g
   id="g213">
					<path
   inkscape:connector-curvature="0"
   style="fill:#fae0c1"
   d="m 196.564,174.706 c -10.447,33.422 -33.051,28.658 -33.051,28.658 l 7.774,45.842 c 6.986,42.344 54.727,54.949 74.039,52.186 19.176,-3.587 60.338,-30.86 53.351,-73.204 l -7.364,-45.909 c 0,-0.001 -68.77,25.558 -94.749,-7.573 z"
   id="path201" />

					<g
   id="g205">
						<path
   inkscape:connector-curvature="0"
   style="fill:#efd0af"
   d="m 298.677,228.187 -7.364,-45.909 c 0,0 -25.396,9.437 -51.153,9.408 l 8.767,49.751 c 4.229,25.631 -9.184,45.737 -24.683,58.414 8.225,1.89 15.741,2.304 21.082,1.54 19.176,-3.587 60.337,-30.86 53.351,-73.204 z"
   id="path203" />

					</g>

					<g
   id="g211">
						<path
   inkscape:connector-curvature="0"
   style="fill:#fae0c1"
   d="m 315.577,201.203 -1.183,-7.168 C 313.013,185.667 305.118,180 296.75,181.381 l -5.468,0.902 6.039,37.497 5.611,-0.926 c 8.369,-1.381 14.026,-9.283 12.645,-17.651 z"
   id="path207" />

						<path
   inkscape:connector-curvature="0"
   style="fill:#efd0af"
   d="m 158.074,204.261 c -8.368,1.381 -14.024,9.283 -12.644,17.651 l 1.183,7.168 c 1.381,8.368 9.276,14.035 17.644,12.654 l 5.611,-0.926 -6.326,-37.45 z"
   id="path209" />

					</g>

				</g>

			</g>

			<path
   inkscape:connector-curvature="0"
   style="fill:#f43b45"
   d="m 354.9,323.583 v 0 c -3.703,-1.171 -10.396,-2.518 -18.126,-3.853 -13.383,16.651 -44.432,31.704 -82.165,37.929 -37.704,6.221 -71.92,1.951 -89.954,-9.499 -7.053,3.835 -13.031,7.289 -15.968,9.445 v 0 c -12.903,9.472 -19.391,25.39 -16.785,41.183 l 1.901,11.52 252.123,-41.598 -1.901,-11.52 C 381.419,341.398 370.162,328.408 354.9,323.583 Z"
   id="path217" />

			<path
   inkscape:connector-curvature="0"
   style="fill:#e02b3d"
   d="M 384.025,357.19 C 381.419,341.397 370.162,328.407 354.9,323.582 v 0 c -3.703,-1.171 -10.396,-2.518 -18.126,-3.853 -6.179,7.688 -16.129,15.031 -28.757,21.326 0.22,0.065 0.431,0.129 0.634,0.193 v 0 c 15.262,4.825 26.519,17.815 29.124,33.608 l 0.289,1.75 47.862,-7.897 z"
   id="path219" />

		</g>

	</g>
</g>

</g>
  <rect
     style="fill:#f9e109"
     height="38"
     rx="4"
     width="58"
     x="3.158829"
     y="23.37071"
     id="rect4956" />
  <path
     style="fill:#fcbc04"
     inkscape:connector-curvature="0"
     d="m 33.158829,50.370711 a 18,18 0 0 1 -18,-18 v -9 H 7.1588289 a 4,4 0 0 0 -4,4 v 30 a 4,4 0 0 0 4,4 H 57.158829 a 4,4 0 0 0 4,-4 v -7 z"
     id="path4958" />
  <path
     style="fill:#57b7eb"
     inkscape:connector-curvature="0"
     d="m 24.158829,51.370711 -12,-3 v -25 h 12 z"
     id="path4960" />
  <path
     style="fill:#4891d3"
     inkscape:connector-curvature="0"
     d="m 20.740829,45.370711 a 17.9,17.9 0 0 1 -5.582,-13 v -9 h -3 v 25 l 12,3 v -6 z"
     id="path4962" />
  <path
     style="fill:#c4f236"
     inkscape:connector-curvature="0"
     d="m 24.195829,43.033711 -8.061,0.9 a 4.469,4.469 0 0 0 0,8.884 l 8.061,0.9 a 5.37,5.37 0 1 0 0,-10.674 z m -0.037,7.337 a 2,2 0 1 1 2,-2 2,2 0 0 1 -2,2 z"
     id="path4964" />
  <g
     style="fill:#aae1f9"
     id="g4974"
     transform="translate(0.15882893,0.37071125)">
    <path
       inkscape:connector-curvature="0"
       d="m 20,28 h -4 a 1,1 0 0 1 0,-2 h 4 a 1,1 0 0 1 0,2 z"
       id="path4966" />
    <path
       inkscape:connector-curvature="0"
       d="m 20,32 h -4 a 1,1 0 0 1 0,-2 h 4 a 1,1 0 0 1 0,2 z"
       id="path4968" />
    <path
       inkscape:connector-curvature="0"
       d="m 20,36 h -4 a 1,1 0 0 1 0,-2 h 4 a 1,1 0 0 1 0,2 z"
       id="path4970" />
    <path
       inkscape:connector-curvature="0"
       d="m 20,40 h -4 a 1,1 0 0 1 0,-2 h 4 a 1,1 0 0 1 0,2 z"
       id="path4972" />
  </g>
  <circle
     style="fill:#4891d3"
     cx="16.158829"
     cy="48.370712"
     r="1"
     id="circle4976" />
  <path
     style="fill:#57b7eb"
     inkscape:connector-curvature="0"
     d="m 15.558829,36.151711 c -0.094,-0.436 -0.155,-0.883 -0.216,-1.331 a 0.936,0.936 0 0 0 0.216,1.331 z"
     id="path4978" />
  <path
     style="fill:#57b7eb"
     inkscape:connector-curvature="0"
     d="m 15.158829,39.370711 a 1,1 0 0 0 1,1 h 0.908 a 17.717,17.717 0 0 1 -0.857,-2 h -0.051 a 1,1 0 0 0 -1,1 z"
     id="path4980" />
</svg>
